HIERARCHY
ROOT Hips
{
	OFFSET 0.00000 0.00000 0.00000
	CHANNELS 6 Xposition Yposition Zposition Yrotation Zrotation Xrotation 
	JOINT Lumbar
	{
		OFFSET 0 0 0
		CHANNELS 3 Zrotation Xrotation Yrotation
		JOINT Neck
		{
			OFFSET 0.00 0.2701 0.00
			CHANNELS 3 Zrotation Xrotation Yrotation
			End Site
			{
				OFFSET 0.00 0.1379 0.00
			}
		}
		JOINT RightShoulder
		{
			OFFSET 0.0119 0.2289 0.1181
			CHANNELS 3 Zrotation Xrotation Yrotation
			JOINT RightElbow
			{
				OFFSET 0.00 -0.1475 0.00
				CHANNELS 2 Zrotation Yrotation
				JOINT RightWrist
				{
					OFFSET 0.00 -0.1605 0.00
					CHANNELS 2 Zrotation Xrotation
					End Site
					{
						OFFSET 0.0040 -0.1068 0.0006
					}
				}
			}
		}
		JOINT LeftShoulder
		{
			OFFSET 0.0119 0.2289 -0.1181
			CHANNELS 3 Zrotation Xrotation Yrotation
			JOINT LeftElbow
			{
				OFFSET 0.00 -0.1475 0.00
				CHANNELS 2 Zrotation Yrotation
				JOINT LeftWrist
				{
					OFFSET 0.00 -0.1605 0.00
					CHANNELS 2 Zrotation Xrotation
					End Site
					{
						OFFSET 0.0040 -0.1068 -0.0006
					}
				}
			}
		}
	}
	JOINT RightHip
	{
		OFFSET 0.0316 -0.0424 0.0458
		CHANNELS 3 Zrotation Xrotation Yrotation
		JOINT RightKnee
		{
			OFFSET 0.00 -0.2438 0.00
			CHANNELS 1 Zrotation
			JOINT RightAnkle
			{
				OFFSET 0.00 -0.2449 0.00
				CHANNELS 3 Zrotation Xrotation Yrotation
				End Site
				{
					OFFSET 0.1237 -0.0542 0.0051
				}
			}
		}
	}
	JOINT LeftHip
	{
		OFFSET 0.0316 -0.0424 -0.0458
		CHANNELS 3 Zrotation Xrotation Yrotation
		JOINT LeftKnee
		{
			OFFSET 0.00 -0.2438 0.00
			CHANNELS 1 Zrotation
			JOINT LeftAnkle
			{
				OFFSET 0.00 -0.2449 0.00
				CHANNELS 3 Zrotation Xrotation Yrotation
				End Site
				{
					OFFSET 0.1237 -0.0542 -0.0051
				}
			}
		}
	}
}
MOTION
Frames: 28
Frame Time: 0.02
1.06478 0.5855 0.76167 1473.02044 0 -9.10103 3.72063 11.44159 7.55956 -23.5518 -9.7111 -5.19847 21.95604 -4.92774 -62.30731 5.32873 83.78039 -2.84975 -2.40538 7.48876 22.34637 -19.03049 30.26521 -92.83872 -10.76503 7.31275 6.46212 11.7886 10.40997 -18.30589 1.87779 -4.88247 -9.10259 18.29248 -0.15118 -9.47911 -70.66793 3.54003 5.95215 14.47511
1.07078 0.58562 0.75889 1473.5809 0 -8.71144 3.56064 11.19055 7.79056 -24.43237 -10.1118 -5.37566 23.27716 -4.8865 -60.85358 5.3287 83.94144 -2.78032 -2.51941 8.00661 22.99033 -18.72676 31.35402 -92.82536 -10.85061 7.27579 5.76581 11.59106 10.45291 -18.36656 2.4279 -5.21586 -9.86484 19.48198 -0.52329 -8.43244 -67.56872 4.50652 6.00332 15.35168
1.07671 0.58553 0.75593 1474.1011 0 -8.37202 3.4309 10.98614 8.03794 -25.5489 -10.58779 -5.58663 24.75211 -4.69274 -60.041 5.32865 83.91944 -2.65916 -2.62156 8.74673 23.79557 -18.4493 32.59444 -92.34518 -10.67431 7.21628 5.09715 11.3919 10.21074 -18.45412 3.02341 -5.49678 -10.30977 20.3375 -0.73334 -7.23388 -63.37213 5.64533 6.00935 16.13003
1.08268 0.58551 0.75303 1474.64396 0 -8.01619 3.29015 10.76208 8.27601 -26.55382 -11.01735 -5.78608 26.14183 -4.5672 -58.93098 5.32861 83.97847 -2.56456 -2.72483 9.37795 24.51374 -18.16242 33.75043 -92.0771 -10.63494 7.15943 4.41064 11.19869 10.09349 -18.52518 3.59985 -5.80526 -10.89267 21.31153 -1.01553 -6.11655 -59.6218 6.66054 6.041 16.91479
1.08857 0.58559 0.75024 1475.16844 0 -7.62982 3.13828 10.52891 8.52231 -27.58965 -11.49946 -5.97354 27.60957 -4.44588 -57.81974 5.32856 84.0424 -2.45778 -2.84682 10.04671 25.29382 -17.85951 34.98165 -91.81499 -10.52526 7.12879 3.74988 10.98217 10.00557 -18.61806 4.16875 -6.10242 -11.51342 22.42059 -1.30995 -4.94795 -56.04618 7.88305 6.05611 17.8606
1.09463 0.58541 0.74716 1475.72062 0 -7.32009 3.01658 10.3263 8.755 -28.60962 -11.89081 -6.19192 28.94313 -4.27811 -56.87485 5.32853 84.05465 -2.36364 -2.9266 10.68587 25.98232 -17.59706 36.08805 -91.42892 -10.49628 7.04118 3.04049 10.8141 9.78597 -18.67052 4.76443 -6.40927 -11.97596 23.17094 -1.53838 -3.84995 -51.87096 8.71148 6.0925 18.45046
1.10118 0.58462 0.74336 1476.37116 0 -7.21267 2.97106 10.20263 8.94945 -29.56088 -11.99819 -6.49273 29.90533 -4.0392 -56.22117 5.32853 83.96365 -2.31937 -2.89414 11.22003 26.37222 -17.45598 36.81841 -90.7951 -10.77297 6.79272 2.19289 10.78259 9.2621 -18.60401 5.42359 -6.75277 -12.07385 23.01609 -1.62088 -2.98078 -46.22989 8.37279 6.20537 18.04745
1.1079 0.58359 0.73926 1477.04868 0 -7.18055 2.95489 10.10728 9.12933 -30.47998 -12.014 -6.8216 30.71814 -3.75562 -55.721 5.32855 83.828 -2.28912 -2.81913 11.71039 26.66491 -17.35318 37.41596 -90.05497 -11.13607 6.49005 1.29437 10.79951 8.61618 -18.49569 6.10798 -7.10776 -12.02263 22.51282 -1.64192 -2.18592 -40.04896 7.63574 6.33944 17.29531
1.11455 0.58264 0.73525 1477.7064 0 -7.11264 2.92489 9.99573 9.31329 -31.39167 -12.0813 -7.13413 31.57477 -3.47961 -55.1584 5.32856 83.71751 -2.25083 -2.76278 12.20065 27.00563 -17.22268 38.0687 -89.37567 -11.44658 6.21896 0.41692 10.79308 8.03114 -18.40627 6.78074 -7.45868 -12.04166 22.16638 -1.69299 -1.36245 -34.16532 7.10225 6.45867 16.72523
1.12117 0.58177 0.7314 1478.39536 0 -7.05338 2.89749 9.9005 9.50727 -32.40714 -12.10994 -7.46469 32.54174 -3.25124 -54.57651 5.32857 83.58211 -2.21769 -2.70944 12.78458 27.33595 -17.13447 38.74698 -88.62847 -11.80359 5.91797 -0.45055 10.79285 7.41261 -18.31753 7.45645 -7.80281 -12.0399 21.81086 -1.73136 -0.52248 -28.00084 6.47965 6.59796 16.05404
1.1279 0.5807 0.72716 1479.02514 0 -6.99291 2.87192 9.77653 9.67834 -33.19274 -12.19593 -7.76188 33.2374 -2.91597 -54.07583 5.32858 83.48776 -2.17794 -2.63918 13.1583 27.66255 -16.96946 39.34071 -88.00213 -12.08852 5.66631 -1.35154 10.79045 6.83964 -18.21803 8.13058 -8.16468 -12.04945 21.40051 -1.78154 0.27674 -22.33582 5.94621 6.70163 15.51051
1.13488 0.57917 0.72199 1479.49493 0 -6.91391 2.83878 9.57343 9.77483 -33.3763 -12.46568 -7.9778 33.25365 -2.2891 -53.64656 5.32858 83.54135 -2.11585 -2.5389 12.97691 28.00303 -16.56071 39.71354 -87.74869 -12.14654 5.5677 -2.32923 10.77709 6.4142 -18.09372 8.80005 -8.56993 -12.13397 20.88521 -1.89912 0.86194 -17.94604 5.74976 6.69649 15.41667
1.14197 0.57745 0.71642 1479.9033 0 -6.83001 2.80764 9.33873 9.85096 -33.32462 -12.79522 -8.15617 32.99552 -1.55845 -53.30957 5.32857 83.63443 -2.04709 -2.42222 12.58194 28.34216 -16.07689 40.00879 -87.62007 -12.13135 5.52001 -3.33865 10.75865 6.04203 -17.96297 9.46491 -8.99261 -12.23562 20.33505 -2.02864 1.42643 -14.12644 5.65648 6.65563 15.46198
1.14904 0.57581 0.71099 1480.33245 0 -6.74627 2.77856 9.11368 9.94673 -33.3621 -13.09527 -8.33932 32.83973 -0.88071 -53.006 5.32857 83.69467 -1.98192 -2.30865 12.27362 28.6809 -15.64261 40.35187 -87.42843 -12.15573 5.44686 -4.33722 10.73802 5.65182 -17.83582 10.12882 -9.4104 -12.32576 19.82887 -2.13945 2.08297 -10.20727 5.52021 6.63524 15.43589
1.15603 0.5742 0.70573 1480.78951 0 -6.67487 2.73667 8.90998 10.00023 -33.47015 -13.40262 -8.57336 32.77103 -0.17654 -52.40046 5.32856 83.81556 -1.91444 -2.21081 12.00657 29.02082 -15.14665 40.63744 -87.26072 -12.1574 5.38184 -5.3267 10.73793 5.2299 -17.69575 10.80987 -9.81905 -12.42462 19.19426 -2.30063 2.40386 -5.59829 5.3563 6.5991 15.43053
1.16319 0.57249 0.70002 1481.1774 0 -6.57441 2.72323 8.65336 10.13451 -33.37997 -13.7093 -8.69462 32.46044 0.49595 -52.43066 5.32856 83.82078 -1.85056 -2.07827 11.60504 29.35895 -14.75822 41.02596 -87.07255 -12.18657 5.31241 -6.33672 10.69339 4.88986 -17.59244 11.44958 -10.24662 -12.51338 18.82 -2.36487 3.40016 -2.56443 5.27636 6.58523 15.42145
1.17082 0.57048 0.6933 1481.3556 0 -6.40495 2.77302 8.26355 10.52024 -32.76324 -14.00678 -8.49168 31.52582 1.06053 -54.30781 5.32857 83.49006 -1.79351 -1.84202 10.86894 29.69626 -14.70929 41.7205 -86.81176 -12.31998 5.22042 -7.43803 10.52508 4.74912 -17.50288 12.0094 -10.75592 -12.55085 19.20362 -2.12215 6.43606 -3.78053 5.4342 6.65741 15.35354
1.17861 0.56839 0.68614 1481.47229 0 -6.20434 2.8539 7.82074 10.98429 -31.96207 -14.30044 -8.18041 30.36239 1.58822 -56.80173 5.32858 83.04202 -1.74107 -1.57382 10.00732 30.03256 -14.76772 42.52235 -86.523 -12.48053 5.12169 -8.54902 10.31207 4.69118 -17.46954 12.51969 -11.27633 -12.57972 19.84549 -1.78866 10.12107 -6.55582 5.67012 6.75069 15.2811
1.18632 0.56637 0.67912 1481.63934 0 -6.01076 2.93021 7.39829 11.39641 -31.26965 -14.59175 -7.93313 29.31962 2.12958 -58.93475 5.3286 82.65382 -1.68969 -1.32836 9.21433 30.36603 -14.75935 43.27279 -86.2394 -12.6224 5.02553 -9.62975 10.12122 4.60621 -17.46658 13.03302 -11.77071 -12.62874 20.35229 -1.52079 13.39816 -8.59597 5.85063 6.82318 15.22257
1.19408 0.56417 0.67234 1481.7104 0 -5.84633 2.96661 6.98933 11.87421 -30.46402 -14.90309 -7.62263 28.19649 2.68863 -61.402 5.32861 82.24384 -1.6251 -1.04778 8.36757 30.70922 -14.8193 44.02795 -85.99593 -12.79159 4.93499 -10.82789 9.92382 4.48222 -17.21862 13.63561 -12.3583 -12.6188 20.93676 -1.15006 17.15138 -10.77457 6.11464 6.93959 15.12047
1.20177 0.56236 0.66497 1481.96668 0 -5.61487 3.09304 6.54155 12.23732 -29.85312 -15.17013 -7.4181 27.19037 3.19952 -63.33012 5.32862 81.84531 -1.58881 -0.83274 7.60247 31.03707 -14.76983 44.80437 -85.65563 -12.90748 4.82825 -11.77444 9.72775 4.4535 -17.50523 14.03154 -12.74912 -12.718 21.41583 -0.97229 20.06714 -13.01916 6.22696 6.97268 15.10397
1.20929 0.56159 0.65607 1482.75829 0 -5.19774 3.46363 5.98799 12.23562 -29.82819 -15.32342 -7.53642 26.56115 3.59568 -63.51353 5.32862 81.55643 -1.63278 -0.80888 7.12286 31.27987 -14.33545 45.5702 -85.09969 -12.89392 4.69946 -12.09936 9.56173 4.71109 -19.15937 13.95 -12.63886 -13.22202 21.58863 -1.34544 20.5116 -15.13706 5.85839 6.74727 15.34481
1.21672 0.56124 0.64659 1483.73762 0 -4.71627 3.92265 5.40006 12.12044 -30.00537 -15.43071 -7.76426 26.05915 3.94212 -63.14984 5.32861 81.27514 -1.70449 -0.85177 6.72526 31.51584 -13.79681 46.35909 -84.44022 -12.8159 4.55188 -12.15628 9.39607 5.05378 -21.36533 13.64986 -12.32333 -13.81955 21.63815 -1.9161 20.09038 -17.25163 5.34178 6.44167 15.66771
1.22415 0.56074 0.63739 1484.6248 0 -4.26897 4.33973 4.83489 12.07742 -30.09023 -15.55357 -7.94015 25.50208 4.3051 -63.10809 5.3286 80.95601 -1.76138 -0.86257 6.27208 31.78242 -13.34507 47.16992 -83.79564 -12.75901 4.39703 -12.28645 9.21966 5.32813 -23.38342 13.39311 -12.07009 -14.30477 21.71236 -2.39965 20.0663 -19.31674 4.92091 6.18832 15.93917
1.23176 0.56005 0.62813 1485.53644 0 -3.79766 4.76734 4.23542 11.95375 -30.17391 -15.69822 -8.12289 24.92628 4.69359 -62.78826 5.3286 80.77213 -1.82775 -0.87948 5.89206 31.93059 -12.73577 47.86014 -83.27796 -12.76087 4.30275 -12.6227 9.08489 5.72872 -25.14602 13.35944 -11.94137 -15.07475 21.9261 -2.87102 20.05145 -21.65004 4.38358 5.86936 16.26974
1.23896 0.55986 0.61887 1486.44535 0 -3.36414 5.19105 3.7028 11.96563 -30.30617 -15.78738 -8.31695 24.42143 5.01613 -62.89734 5.32859 80.31725 -1.88095 -0.90015 5.38031 32.3266 -12.4215 48.78993 -82.48173 -12.59541 4.08542 -12.46497 8.86591 5.88792 -27.56088 12.82421 -11.51283 -15.28608 21.81878 -3.41312 19.80042 -23.40577 4.05146 5.66721 16.49739
1.24514 0.56102 0.60965 1487.27804 0 -3.0283 5.6041 3.33906 12.41706 -30.5624 -15.72694 -8.53209 24.09512 5.18089 -64.42732 5.32858 79.04928 -1.89071 -0.9134 4.49055 33.38294 -13.00678 50.51154 -80.85653 -12.24301 3.46705 -11.01715 8.39895 5.33984 -31.72439 10.83299 -10.23363 -13.82796 20.83442 -4.1259 19.12938 -23.53913 4.33157 5.81197 16.41443
1.25089 0.56266 0.60047 1488.1068 0 -2.73713 6.00594 3.04862 13.00105 -30.85484 -15.61308 -8.75261 23.83526 5.27857 -66.38564 5.32857 77.52075 -1.88633 -0.92861 3.46543 34.69239 -13.88076 52.44863 -78.97108 -11.68199 2.73665 -9.08041 7.85049 4.55019 -36.50595 8.36725 -8.67312 -11.82414 19.53357 -4.89897 18.24266 -23.08829 4.8209 6.076 16.22606
